<?xml version="1.0" encoding="UTF-8" standalone="no" ?>
<!DOCTYPE svg PUBLIC "-//W3C//DTD SVG 1.1//EN" "http://www.w3.org/Graphics/SVG/1.1/DTD/svg11.dtd">
<svg xmlns="http://www.w3.org/2000/svg" xmlns:xlink="http://www.w3.org/1999/xlink" version="1.1" width="500" height="500" viewBox="0 0 500 500" xml:space="preserve">
<desc>Created with Fabric.js 5.2.4</desc>
<defs>
</defs>
<g transform="matrix(Infinity NaN NaN Infinity 0 0)" id="2c6afd90-44c8-43b2-b93a-2cc986298480"  >
</g>
<g transform="matrix(1 0 0 1 250 250)" id="e6253c95-fec6-4b34-a5ef-ecf962a19cfb"  >
<rect style="stroke: none; stroke-width: 1; stroke-dasharray: none; stroke-linecap: butt; stroke-dashoffset: 0; stroke-linejoin: miter; stroke-miterlimit: 4; fill: rgb(255,255,255); fill-rule: nonzero; opacity: 1; visibility: hidden;" vector-effect="non-scaling-stroke"  x="-250" y="-250" rx="0" ry="0" width="500" height="500" />
</g>
<g transform="matrix(0.06 0 0 -0.06 310.67 250)"  >
<path style="stroke: none; stroke-width: 50; stroke-dasharray: none; stroke-linecap: butt; stroke-dashoffset: 0; stroke-linejoin: miter; stroke-miterlimit: 4; fill: rgb(0,0,0); fill-rule: nonzero; opacity: 1;" vector-effect="non-scaling-stroke"  transform=" translate(-8464.2, -7490.51)" d="M 7212 10614 C 6948 10586 6681 10524 6439 10436 C 6307 10388 6072 10286 6055 10269 C 6050 10263 6077 10273 6115 10290 C 6421 10428 6713 10515 7015 10559 C 7700 10659 8380 10551 8989 10246 C 9560 9959 10028 9524 10358 8971 C 10579 8600 10734 8157 10795 7719 C 10817 7559 10826 7176 10811 6998 C 10762 6426 10562 5869 10233 5394 C 9952 4987 9561 4631 9138 4396 C 9100 4375 9070 4356 9070 4353 C 9070 4341 9276 4459 9405 4545 C 9939 4899 10357 5401 10608 5990 C 10737 6291 10823 6621 10861 6960 C 10880 7126 10878 7523 10856 7685 C 10773 8321 10550 8862 10164 9360 C 10053 9504 9770 9789 9625 9904 C 9106 10315 8497 10558 7835 10620 C 7686 10634 7363 10631 7212 10614 z" stroke-linecap="round" />
</g>
<g transform="matrix(0.09 0 0 -0.09 357.79 211.82)"  >
<path style="stroke: none; stroke-width: 1; stroke-dasharray: none; stroke-linecap: butt; stroke-dashoffset: 0; stroke-linejoin: miter; stroke-miterlimit: 4; fill: rgb(0,0,0); fill-rule: nonzero; opacity: 1;" vector-effect="non-scaling-stroke"  transform=" translate(-8658.38, -8549.5)" d="M 8508 8575 C 8505 8572 8505 8558 8508 8545 L 8512 8519 L 8659 8522 L 8805 8525 L 8808 8553 L 8811 8580 L 8662 8580 C 8580 8580 8511 8578 8508 8575 z" stroke-linecap="round" />
</g>
<g transform="matrix(0.09 0 0 -0.09 233.51 265.07)"  >
<path style="stroke: none; stroke-width: 1; stroke-dasharray: none; stroke-linecap: butt; stroke-dashoffset: 0; stroke-linejoin: miter; stroke-miterlimit: 4; fill: rgb(0,0,0); fill-rule: nonzero; opacity: 1;" vector-effect="non-scaling-stroke"  transform=" translate(-7252.4, -7955.45)" d="M 7562 8243 C 7507 8140 7416 7967 7360 7860 C 7304 7753 7257 7664 7256 7663 C 7255 7662 7165 7832 7055 8041 C 6911 8315 6852 8420 6840 8418 C 6832 8416 6824 8406 6822 8395 C 6813 8324 6743 7504 6746 7501 C 6754 7493 6816 7491 6829 7499 C 6838 7505 6850 7592 6870 7814 C 6885 7983 6899 8123 6902 8125 C 6904 8127 6980 7986 7072 7812 C 7194 7578 7242 7495 7255 7495 C 7268 7495 7316 7578 7438 7812 C 7529 7987 7606 8128 7608 8125 C 7611 8123 7625 7983 7640 7814 C 7660 7592 7672 7505 7681 7499 C 7698 7488 7741 7488 7757 7498 C 7772 7508 7694 8399 7675 8418 C 7665 8430 7645 8398 7562 8243 z" stroke-linecap="round" />
</g>
<g transform="matrix(0.09 0 0 -0.09 105.43 265.36)"  >
<path style="stroke: none; stroke-width: 1; stroke-dasharray: none; stroke-linecap: butt; stroke-dashoffset: 0; stroke-linejoin: miter; stroke-miterlimit: 4; fill: rgb(0,0,0); fill-rule: nonzero; opacity: 1;" vector-effect="non-scaling-stroke"  transform=" translate(-5810.48, -7952.22)" d="M 5434 8407 C 5431 8399 5430 8253 5432 8084 C 5435 7785 5436 7773 5459 7715 C 5490 7638 5572 7550 5642 7520 C 5789 7457 5956 7480 6064 7580 C 6175 7682 6190 7745 6190 8116 C 6190 8427 6190 8424 6128 8418 L 6095 8415 L 6090 8105 C 6085 7843 6082 7789 6067 7757 C 6018 7646 5924 7584 5805 7586 C 5765 7586 5719 7593 5699 7602 C 5646 7625 5588 7681 5560 7737 C 5535 7784 5535 7790 5530 8100 L 5525 8415 L 5482 8418 C 5452 8420 5438 8417 5434 8407 z" stroke-linecap="round" />
</g>
<g transform="matrix(0.09 0 0 -0.09 358.1 265.15)"  >
<path style="stroke: none; stroke-width: 1; stroke-dasharray: none; stroke-linecap: butt; stroke-dashoffset: 0; stroke-linejoin: miter; stroke-miterlimit: 4; fill: rgb(0,0,0); fill-rule: nonzero; opacity: 1;" vector-effect="non-scaling-stroke"  transform=" translate(-8658.22, -7954.74)" d="M 8614 8363 C 8600 8331 8584 8294 8579 8280 C 8573 8266 8497 8090 8408 7887 C 8320 7685 8250 7513 8254 7505 C 8257 7495 8273 7490 8301 7490 L 8342 7490 L 8373 7560 L 8404 7630 L 8656 7630 L 8909 7630 L 8942 7563 C 8974 7498 8977 7495 9014 7492 C 9035 7490 9057 7493 9061 7497 C 9070 7506 9044 7573 8912 7875 C 8874 7963 8807 8116 8765 8215 C 8722 8314 8682 8401 8677 8408 C 8658 8432 8639 8419 8614 8363 z M 8729 8072 C 8764 7986 8811 7873 8833 7822 C 8854 7771 8870 7727 8868 7724 C 8865 7722 8768 7721 8652 7722 L 8441 7725 L 8496 7855 C 8526 7927 8573 8040 8602 8108 C 8630 8175 8656 8230 8659 8230 C 8662 8230 8694 8159 8729 8072 z" stroke-linecap="round" />
</g>
<g transform="matrix(0.06 0 0 -0.06 569 709.19)"  >
<path style="stroke: none; stroke-width: 1; stroke-dasharray: none; stroke-linecap: butt; stroke-dashoffset: 0; stroke-linejoin: miter; stroke-miterlimit: 4; fill: rgb(0,0,0); fill-rule: nonzero; opacity: 1;" vector-effect="non-scaling-stroke"  transform=" translate(-9045.65, -4339.5)" d="M 9040 4340 C 9031 4334 9030 4330 9037 4330 C 9043 4330 9052 4335 9055 4340 C 9063 4352 9059 4352 9040 4340 z" stroke-linecap="round" />
</g>
</svg>